<?xml version="1.0" encoding="us-ascii" standalone="no"?><svg xmlns="http://www.w3.org/2000/svg" xmlns:xlink="http://www.w3.org/1999/xlink" contentStyleType="text/css" height="1377px" preserveAspectRatio="none" style="width:1352px;height:1377px;background:#FFFFFF;" version="1.1" viewBox="0 0 1352 1377" width="1352px" zoomAndPan="magnify"><defs/><g><!--class language--><g id="elem_language"><rect codeLine="4" fill="#F1F1F1" height="86.1358" id="language" rx="2.5" ry="2.5" style="stroke:#181818;stroke-width:0.5;" width="151" x="349.46" y="610.5"/><ellipse cx="389.21" cy="626.5" fill="#ADD1B2" rx="11" ry="11" style="stroke:#181818;stroke-width:1.0;"/><path d="M393.3194,632.5 L385.6006,632.5 L385.6006,620.1094 L393.3194,620.1094 L393.3194,622.2656 L388.0538,622.2656 L388.0538,624.9375 L392.8194,624.9375 L392.8194,627.0938 L388.0538,627.0938 L388.0538,630.3438 L393.3194,630.3438 L393.3194,632.5 Z " fill="#000000"/><text fill="#000000" font-family="sans-serif" font-size="14" lengthAdjust="spacing" textLength="64" x="408.71" y="631.932">language</text><line style="stroke:#181818;stroke-width:0.5;" x1="350.46" x2="499.46" y1="642.5" y2="642.5"/><ellipse cx="360.46" cy="657.534" fill="#000000" rx="3" ry="3" style="stroke:#000000;stroke-width:1.0;"/><text fill="#000000" font-family="sans-serif" font-size="14" lengthAdjust="spacing" textLength="125" x="369.46" y="661.4659">code : char(2) &#171;PK&#187;</text><line style="stroke:#181818;stroke-width:1.0;" x1="350.46" x2="499.46" y1="669.5679" y2="669.5679"/><text fill="#000000" font-family="sans-serif" font-size="14" lengthAdjust="spacing" textLength="75" x="355.46" y="688.5339">name : text</text></g><!--class e_ticket--><g id="elem_e_ticket"><rect codeLine="13" fill="#F1F1F1" height="467.4942" id="e_ticket" rx="2.5" ry="2.5" style="stroke:#181818;stroke-width:0.5;" width="293" x="742.46" y="7"/><ellipse cx="859.71" cy="23" fill="#ADD1B2" rx="11" ry="11" style="stroke:#181818;stroke-width:1.0;"/><path d="M863.8194,29 L856.1006,29 L856.1006,16.6094 L863.8194,16.6094 L863.8194,18.7656 L858.5538,18.7656 L858.5538,21.4375 L863.3194,21.4375 L863.3194,23.5938 L858.5538,23.5938 L858.5538,26.8438 L863.8194,26.8438 L863.8194,29 Z " fill="#000000"/><text fill="#000000" font-family="sans-serif" font-size="14" lengthAdjust="spacing" textLength="50" x="880.21" y="28.432">e_ticket</text><line style="stroke:#181818;stroke-width:0.5;" x1="743.46" x2="1034.46" y1="39" y2="39"/><ellipse cx="753.46" cy="54.034" fill="#000000" rx="3" ry="3" style="stroke:#000000;stroke-width:1.0;"/><text fill="#000000" font-family="sans-serif" font-size="14" lengthAdjust="spacing" textLength="146" x="762.46" y="57.9659">f_id : varchar(32) &#171;PK&#187;</text><line style="stroke:#181818;stroke-width:1.0;" x1="743.46" x2="1034.46" y1="66.0679" y2="66.0679"/><text fill="#000000" font-family="sans-serif" font-size="14" lengthAdjust="spacing" textLength="155" x="748.46" y="85.0339">f_entity_id : varchar(32)</text><text fill="#000000" font-family="sans-serif" font-size="14" lengthAdjust="spacing" textLength="130" x="748.46" y="104.1018">f_code : varchar(32)</text><text fill="#000000" font-family="sans-serif" font-size="14" lengthAdjust="spacing" textLength="164" x="748.46" y="123.1697">f_service_id : varchar(32)</text><text fill="#000000" font-family="sans-serif" font-size="14" lengthAdjust="spacing" textLength="193" x="748.46" y="142.2376">f_object_type_id : varchar(32)</text><text fill="#000000" font-family="sans-serif" font-size="14" lengthAdjust="spacing" textLength="170" x="748.46" y="161.3055">f_account_id : varchar(32)</text><text fill="#000000" font-family="sans-serif" font-size="14" lengthAdjust="spacing" textLength="166" x="748.46" y="180.3734">f_contact_id : varchar(32)</text><text fill="#000000" font-family="sans-serif" font-size="14" lengthAdjust="spacing" textLength="214" x="748.46" y="199.4414">f_assigned_user_id : varchar(32)</text><text fill="#000000" font-family="sans-serif" font-size="14" lengthAdjust="spacing" textLength="195" x="748.46" y="218.5093">f_owner_user_id : varchar(32)</text><text fill="#000000" font-family="sans-serif" font-size="14" lengthAdjust="spacing" textLength="192" x="748.46" y="237.5772">f_closure_date : timestamptz</text><text fill="#000000" font-family="sans-serif" font-size="14" lengthAdjust="spacing" textLength="187" x="748.46" y="256.6451">f_last_change : timestamptz</text><text fill="#000000" font-family="sans-serif" font-size="14" lengthAdjust="spacing" textLength="136" x="748.46" y="275.713">f_entity : varchar(32)</text><text fill="#000000" font-family="sans-serif" font-size="14" lengthAdjust="spacing" textLength="198" x="748.46" y="294.7809">f_creation_date : timestamptz</text><text fill="#000000" font-family="sans-serif" font-size="14" lengthAdjust="spacing" textLength="200" x="748.46" y="313.8489">f_ticket_status_id : varchar(32)</text><text fill="#000000" font-family="sans-serif" font-size="14" lengthAdjust="spacing" textLength="181" x="748.46" y="332.9168">f_ticket_status_type : bigint</text><text fill="#000000" font-family="sans-serif" font-size="14" lengthAdjust="spacing" textLength="172" x="748.46" y="351.9847">f_urgency_id : varchar(32)</text><text fill="#000000" font-family="sans-serif" font-size="14" lengthAdjust="spacing" textLength="163" x="748.46" y="371.0526">f_impact_id : varchar(32)</text><text fill="#000000" font-family="sans-serif" font-size="14" lengthAdjust="spacing" textLength="208" x="748.46" y="390.1205">f_ticket_priority_id : varchar(32)</text><text fill="#000000" font-family="sans-serif" font-size="14" lengthAdjust="spacing" textLength="204" x="748.46" y="409.1884">f_ticket_source_id : varchar(32)</text><text fill="#000000" font-family="sans-serif" font-size="14" lengthAdjust="spacing" textLength="261" x="748.46" y="428.2564">f_assigned_user_group_id : varchar(32)</text><text fill="#000000" font-family="sans-serif" font-size="14" lengthAdjust="spacing" textLength="281" x="748.46" y="447.3243">f_assigned_user_or_group_id : varchar(32)</text><text fill="#000000" font-family="sans-serif" font-size="14" lengthAdjust="spacing" textLength="242" x="748.46" y="466.3922">f_owner_user_group_id : varchar(32)</text></g><!--class e_ticket_field--><g id="elem_e_ticket_field"><rect codeLine="39" fill="#F1F1F1" height="86.1358" id="e_ticket_field" rx="2.5" ry="2.5" style="stroke:#181818;stroke-width:0.5;" width="172" x="103.96" y="610.5"/><ellipse cx="143.26" cy="626.5" fill="#ADD1B2" rx="11" ry="11" style="stroke:#181818;stroke-width:1.0;"/><path d="M147.3694,632.5 L139.6506,632.5 L139.6506,620.1094 L147.3694,620.1094 L147.3694,622.2656 L142.1038,622.2656 L142.1038,624.9375 L146.8694,624.9375 L146.8694,627.0938 L142.1038,627.0938 L142.1038,630.3438 L147.3694,630.3438 L147.3694,632.5 Z " fill="#000000"/><text fill="#000000" font-family="sans-serif" font-size="14" lengthAdjust="spacing" textLength="86" x="162.66" y="631.932">e_ticket_field</text><line style="stroke:#181818;stroke-width:0.5;" x1="104.96" x2="274.96" y1="642.5" y2="642.5"/><ellipse cx="114.96" cy="657.534" fill="#000000" rx="3" ry="3" style="stroke:#000000;stroke-width:1.0;"/><text fill="#000000" font-family="sans-serif" font-size="14" lengthAdjust="spacing" textLength="146" x="123.96" y="661.4659">field_name : text &#171;PK&#187;</text><line style="stroke:#181818;stroke-width:1.0;" x1="104.96" x2="274.96" y1="669.5679" y2="669.5679"/><text fill="#000000" font-family="sans-serif" font-size="14" lengthAdjust="spacing" textLength="125" x="109.96" y="688.5339">logical_name : text</text></g><!--class e_ticket_chunk--><g id="elem_e_ticket_chunk"><rect codeLine="46" fill="#F1F1F1" height="238.6792" id="e_ticket_chunk" rx="2.5" ry="2.5" style="stroke:#181818;stroke-width:0.5;" width="215" x="44.46" y="833"/><ellipse cx="99.21" cy="849" fill="#ADD1B2" rx="11" ry="11" style="stroke:#181818;stroke-width:1.0;"/><path d="M103.3194,855 L95.6006,855 L95.6006,842.6094 L103.3194,842.6094 L103.3194,844.7656 L98.0538,844.7656 L98.0538,847.4375 L102.8194,847.4375 L102.8194,849.5938 L98.0538,849.5938 L98.0538,852.8438 L103.3194,852.8438 L103.3194,855 Z " fill="#000000"/><text fill="#000000" font-family="sans-serif" font-size="14" lengthAdjust="spacing" textLength="97" x="119.71" y="854.432">e_ticket_chunk</text><line style="stroke:#181818;stroke-width:0.5;" x1="45.46" x2="258.46" y1="865" y2="865"/><ellipse cx="55.46" cy="880.034" fill="#000000" rx="3" ry="3" style="stroke:#000000;stroke-width:1.0;"/><text fill="#000000" font-family="sans-serif" font-size="14" lengthAdjust="spacing" textLength="170" x="64.46" y="883.9659">f_id : varchar(32) &#171;PK, FK&#187;</text><ellipse cx="55.46" cy="899.1019" fill="#000000" rx="3" ry="3" style="stroke:#000000;stroke-width:1.0;"/><text fill="#000000" font-family="sans-serif" font-size="14" lengthAdjust="spacing" textLength="170" x="64.46" y="903.0339">field_name : text &#171;PK, FK&#187;</text><ellipse cx="55.46" cy="918.1698" fill="#000000" rx="3" ry="3" style="stroke:#000000;stroke-width:1.0;"/><text fill="#000000" font-family="sans-serif" font-size="14" lengthAdjust="spacing" textLength="164" x="64.46" y="922.1018">chunk_counter : int &#171;PK&#187;</text><line style="stroke:#181818;stroke-width:1.0;" x1="45.46" x2="258.46" y1="930.2038" y2="930.2038"/><text fill="#000000" font-family="sans-serif" font-size="14" lengthAdjust="spacing" textLength="109" x="50.46" y="949.1697">chunk_text : text</text><text fill="#000000" font-family="sans-serif" font-size="14" lengthAdjust="spacing" textLength="203" x="50.46" y="968.2376">chunk_language : char(2) &#171;FK&#187;</text><text fill="#000000" font-family="sans-serif" font-size="14" lengthAdjust="spacing" textLength="163" x="50.46" y="987.3055">embedding : vector(128)</text><text fill="#000000" font-family="sans-serif" font-size="14" lengthAdjust="spacing" textLength="135" x="50.46" y="1006.3734">tsv_simple : tsvector</text><text fill="#000000" font-family="sans-serif" font-size="14" lengthAdjust="spacing" textLength="120" x="50.46" y="1025.4414">tsv_lang : tsvector</text><text fill="#000000" font-family="sans-serif" font-size="14" lengthAdjust="spacing" textLength="187" x="50.46" y="1044.5093">f_last_change : timestamptz</text><text fill="#000000" font-family="sans-serif" font-size="14" lengthAdjust="spacing" textLength="192" x="50.46" y="1063.5772">f_closure_date : timestamptz</text></g><!--class e_conversation_item--><g id="elem_e_conversation_item"><rect codeLine="68" fill="#F1F1F1" height="200.5433" id="e_conversation_item" rx="2.5" ry="2.5" style="stroke:#181818;stroke-width:0.5;" width="199" x="789.46" y="553"/><ellipse cx="818.41" cy="569" fill="#ADD1B2" rx="11" ry="11" style="stroke:#181818;stroke-width:1.0;"/><path d="M822.5194,575 L814.8006,575 L814.8006,562.6094 L822.5194,562.6094 L822.5194,564.7656 L817.2538,564.7656 L817.2538,567.4375 L822.0194,567.4375 L822.0194,569.5938 L817.2538,569.5938 L817.2538,572.8438 L822.5194,572.8438 L822.5194,575 Z " fill="#000000"/><text fill="#000000" font-family="sans-serif" font-size="14" lengthAdjust="spacing" textLength="136" x="835.51" y="574.432">e_conversation_item</text><line style="stroke:#181818;stroke-width:0.5;" x1="790.46" x2="987.46" y1="585" y2="585"/><ellipse cx="800.46" cy="600.034" fill="#000000" rx="3" ry="3" style="stroke:#000000;stroke-width:1.0;"/><text fill="#000000" font-family="sans-serif" font-size="14" lengthAdjust="spacing" textLength="146" x="809.46" y="603.9659">f_id : varchar(32) &#171;PK&#187;</text><line style="stroke:#181818;stroke-width:1.0;" x1="790.46" x2="987.46" y1="612.0679" y2="612.0679"/><text fill="#000000" font-family="sans-serif" font-size="14" lengthAdjust="spacing" textLength="155" x="795.46" y="631.0339">f_entity_id : varchar(32)</text><text fill="#000000" font-family="sans-serif" font-size="14" lengthAdjust="spacing" textLength="170" x="795.46" y="650.1018">f_account_id : varchar(32)</text><text fill="#000000" font-family="sans-serif" font-size="14" lengthAdjust="spacing" textLength="166" x="795.46" y="669.1697">f_contact_id : varchar(32)</text><text fill="#000000" font-family="sans-serif" font-size="14" lengthAdjust="spacing" textLength="187" x="795.46" y="688.2376">f_ticket_id : varchar(32) &#171;FK&#187;</text><text fill="#000000" font-family="sans-serif" font-size="14" lengthAdjust="spacing" textLength="150" x="795.46" y="707.3055">f_site_visible : boolean</text><text fill="#000000" font-family="sans-serif" font-size="14" lengthAdjust="spacing" textLength="136" x="795.46" y="726.3734">f_entity : varchar(32)</text><text fill="#000000" font-family="sans-serif" font-size="14" lengthAdjust="spacing" textLength="147" x="795.46" y="745.4414">f_user_id : varchar(32)</text></g><!--class e_conversation_item_field--><g id="elem_e_conversation_item_field"><rect codeLine="80" fill="#F1F1F1" height="86.1358" id="e_conversation_item_field" rx="2.5" ry="2.5" style="stroke:#181818;stroke-width:0.5;" width="204" x="549.96" y="610.5"/><ellipse cx="564.96" cy="626.5" fill="#ADD1B2" rx="11" ry="11" style="stroke:#181818;stroke-width:1.0;"/><path d="M569.0694,632.5 L561.3506,632.5 L561.3506,620.1094 L569.0694,620.1094 L569.0694,622.2656 L563.8038,622.2656 L563.8038,624.9375 L568.5694,624.9375 L568.5694,627.0938 L563.8038,627.0938 L563.8038,630.3438 L569.0694,630.3438 L569.0694,632.5 Z " fill="#000000"/><text fill="#000000" font-family="sans-serif" font-size="14" lengthAdjust="spacing" textLength="172" x="578.96" y="631.932">e_conversation_item_field</text><line style="stroke:#181818;stroke-width:0.5;" x1="550.96" x2="752.96" y1="642.5" y2="642.5"/><ellipse cx="560.96" cy="657.534" fill="#000000" rx="3" ry="3" style="stroke:#000000;stroke-width:1.0;"/><text fill="#000000" font-family="sans-serif" font-size="14" lengthAdjust="spacing" textLength="146" x="569.96" y="661.4659">field_name : text &#171;PK&#187;</text><line style="stroke:#181818;stroke-width:1.0;" x1="550.96" x2="752.96" y1="669.5679" y2="669.5679"/><text fill="#000000" font-family="sans-serif" font-size="14" lengthAdjust="spacing" textLength="125" x="555.96" y="688.5339">logical_name : text</text></g><!--class e_conversation_item_chunk--><g id="elem_e_conversation_item_chunk"><rect codeLine="87" fill="#F1F1F1" height="219.6113" id="e_conversation_item_chunk" rx="2.5" ry="2.5" style="stroke:#181818;stroke-width:0.5;" width="215" x="603.46" y="842.5"/><ellipse cx="618.46" cy="858.5" fill="#ADD1B2" rx="11" ry="11" style="stroke:#181818;stroke-width:1.0;"/><path d="M622.5694,864.5 L614.8506,864.5 L614.8506,852.1094 L622.5694,852.1094 L622.5694,854.2656 L617.3038,854.2656 L617.3038,856.9375 L622.0694,856.9375 L622.0694,859.0938 L617.3038,859.0938 L617.3038,862.3438 L622.5694,862.3438 L622.5694,864.5 Z " fill="#000000"/><text fill="#000000" font-family="sans-serif" font-size="14" lengthAdjust="spacing" textLength="183" x="632.46" y="863.932">e_conversation_item_chunk</text><line style="stroke:#181818;stroke-width:0.5;" x1="604.46" x2="817.46" y1="874.5" y2="874.5"/><ellipse cx="614.46" cy="889.534" fill="#000000" rx="3" ry="3" style="stroke:#000000;stroke-width:1.0;"/><text fill="#000000" font-family="sans-serif" font-size="14" lengthAdjust="spacing" textLength="170" x="623.46" y="893.4659">f_id : varchar(32) &#171;PK, FK&#187;</text><ellipse cx="614.46" cy="908.6019" fill="#000000" rx="3" ry="3" style="stroke:#000000;stroke-width:1.0;"/><text fill="#000000" font-family="sans-serif" font-size="14" lengthAdjust="spacing" textLength="170" x="623.46" y="912.5339">field_name : text &#171;PK, FK&#187;</text><ellipse cx="614.46" cy="927.6698" fill="#000000" rx="3" ry="3" style="stroke:#000000;stroke-width:1.0;"/><text fill="#000000" font-family="sans-serif" font-size="14" lengthAdjust="spacing" textLength="164" x="623.46" y="931.6018">chunk_counter : int &#171;PK&#187;</text><line style="stroke:#181818;stroke-width:1.0;" x1="604.46" x2="817.46" y1="939.7038" y2="939.7038"/><text fill="#000000" font-family="sans-serif" font-size="14" lengthAdjust="spacing" textLength="109" x="609.46" y="958.6697">chunk_text : text</text><text fill="#000000" font-family="sans-serif" font-size="14" lengthAdjust="spacing" textLength="203" x="609.46" y="977.7376">chunk_language : char(2) &#171;FK&#187;</text><text fill="#000000" font-family="sans-serif" font-size="14" lengthAdjust="spacing" textLength="163" x="609.46" y="996.8055">embedding : vector(128)</text><text fill="#000000" font-family="sans-serif" font-size="14" lengthAdjust="spacing" textLength="135" x="609.46" y="1015.8734">tsv_simple : tsvector</text><text fill="#000000" font-family="sans-serif" font-size="14" lengthAdjust="spacing" textLength="120" x="609.46" y="1034.9414">tsv_lang : tsvector</text><text fill="#000000" font-family="sans-serif" font-size="14" lengthAdjust="spacing" textLength="170" x="609.46" y="1054.0093">f_account_id : varchar(32)</text></g><!--class e_attachments--><g id="elem_e_attachments"><rect codeLine="109" fill="#F1F1F1" height="105.2038" id="e_attachments" rx="2.5" ry="2.5" style="stroke:#181818;stroke-width:0.5;" width="285" x="853.46" y="900"/><ellipse cx="942.71" cy="916" fill="#ADD1B2" rx="11" ry="11" style="stroke:#181818;stroke-width:1.0;"/><path d="M946.8194,922 L939.1006,922 L939.1006,909.6094 L946.8194,909.6094 L946.8194,911.7656 L941.5538,911.7656 L941.5538,914.4375 L946.3194,914.4375 L946.3194,916.5938 L941.5538,916.5938 L941.5538,919.8438 L946.8194,919.8438 L946.8194,922 Z " fill="#000000"/><text fill="#000000" font-family="sans-serif" font-size="14" lengthAdjust="spacing" textLength="98" x="963.21" y="921.432">e_attachments</text><line style="stroke:#181818;stroke-width:0.5;" x1="854.46" x2="1137.46" y1="932" y2="932"/><ellipse cx="864.46" cy="947.034" fill="#000000" rx="3" ry="3" style="stroke:#000000;stroke-width:1.0;"/><text fill="#000000" font-family="sans-serif" font-size="14" lengthAdjust="spacing" textLength="146" x="873.46" y="950.9659">f_id : varchar(32) &#171;PK&#187;</text><line style="stroke:#181818;stroke-width:1.0;" x1="854.46" x2="1137.46" y1="959.0679" y2="959.0679"/><text fill="#000000" font-family="sans-serif" font-size="14" lengthAdjust="spacing" textLength="187" x="859.46" y="978.0339">f_ticket_id : varchar(32) &#171;FK&#187;</text><text fill="#000000" font-family="sans-serif" font-size="14" lengthAdjust="spacing" textLength="273" x="859.46" y="997.1018">f_conversation_item_id : varchar(32) &#171;FK&#187;</text></g><!--class e_attachments_field--><g id="elem_e_attachments_field"><rect codeLine="116" fill="#F1F1F1" height="86.1358" id="e_attachments_field" rx="2.5" ry="2.5" style="stroke:#181818;stroke-width:0.5;" width="172" x="1173.96" y="909.5"/><ellipse cx="1191.66" cy="925.5" fill="#ADD1B2" rx="11" ry="11" style="stroke:#181818;stroke-width:1.0;"/><path d="M1195.7694,931.5 L1188.0506,931.5 L1188.0506,919.1094 L1195.7694,919.1094 L1195.7694,921.2656 L1190.5038,921.2656 L1190.5038,923.9375 L1195.2694,923.9375 L1195.2694,926.0938 L1190.5038,926.0938 L1190.5038,929.3438 L1195.7694,929.3438 L1195.7694,931.5 Z " fill="#000000"/><text fill="#000000" font-family="sans-serif" font-size="14" lengthAdjust="spacing" textLength="134" x="1206.26" y="930.932">e_attachments_field</text><line style="stroke:#181818;stroke-width:0.5;" x1="1174.96" x2="1344.96" y1="941.5" y2="941.5"/><ellipse cx="1184.96" cy="956.534" fill="#000000" rx="3" ry="3" style="stroke:#000000;stroke-width:1.0;"/><text fill="#000000" font-family="sans-serif" font-size="14" lengthAdjust="spacing" textLength="146" x="1193.96" y="960.4659">field_name : text &#171;PK&#187;</text><line style="stroke:#181818;stroke-width:1.0;" x1="1174.96" x2="1344.96" y1="968.5679" y2="968.5679"/><text fill="#000000" font-family="sans-serif" font-size="14" lengthAdjust="spacing" textLength="125" x="1179.96" y="987.5339">logical_name : text</text></g><!--class e_attachments_chunk--><g id="elem_e_attachments_chunk"><rect codeLine="123" fill="#F1F1F1" height="219.6113" id="e_attachments_chunk" rx="2.5" ry="2.5" style="stroke:#181818;stroke-width:0.5;" width="215" x="888.46" y="1151"/><ellipse cx="920.56" cy="1167" fill="#ADD1B2" rx="11" ry="11" style="stroke:#181818;stroke-width:1.0;"/><path d="M924.6694,1173 L916.9506,1173 L916.9506,1160.6094 L924.6694,1160.6094 L924.6694,1162.7656 L919.4038,1162.7656 L919.4038,1165.4375 L924.1694,1165.4375 L924.1694,1167.5938 L919.4038,1167.5938 L919.4038,1170.8438 L924.6694,1170.8438 L924.6694,1173 Z " fill="#000000"/><text fill="#000000" font-family="sans-serif" font-size="14" lengthAdjust="spacing" textLength="145" x="938.36" y="1172.432">e_attachments_chunk</text><line style="stroke:#181818;stroke-width:0.5;" x1="889.46" x2="1102.46" y1="1183" y2="1183"/><ellipse cx="899.46" cy="1198.034" fill="#000000" rx="3" ry="3" style="stroke:#000000;stroke-width:1.0;"/><text fill="#000000" font-family="sans-serif" font-size="14" lengthAdjust="spacing" textLength="170" x="908.46" y="1201.9659">f_id : varchar(32) &#171;PK, FK&#187;</text><ellipse cx="899.46" cy="1217.1019" fill="#000000" rx="3" ry="3" style="stroke:#000000;stroke-width:1.0;"/><text fill="#000000" font-family="sans-serif" font-size="14" lengthAdjust="spacing" textLength="170" x="908.46" y="1221.0339">field_name : text &#171;PK, FK&#187;</text><ellipse cx="899.46" cy="1236.1698" fill="#000000" rx="3" ry="3" style="stroke:#000000;stroke-width:1.0;"/><text fill="#000000" font-family="sans-serif" font-size="14" lengthAdjust="spacing" textLength="164" x="908.46" y="1240.1018">chunk_counter : int &#171;PK&#187;</text><line style="stroke:#181818;stroke-width:1.0;" x1="889.46" x2="1102.46" y1="1248.2038" y2="1248.2038"/><text fill="#000000" font-family="sans-serif" font-size="14" lengthAdjust="spacing" textLength="109" x="894.46" y="1267.1697">chunk_text : text</text><text fill="#000000" font-family="sans-serif" font-size="14" lengthAdjust="spacing" textLength="203" x="894.46" y="1286.2376">chunk_language : char(2) &#171;FK&#187;</text><text fill="#000000" font-family="sans-serif" font-size="14" lengthAdjust="spacing" textLength="163" x="894.46" y="1305.3055">embedding : vector(128)</text><text fill="#000000" font-family="sans-serif" font-size="14" lengthAdjust="spacing" textLength="135" x="894.46" y="1324.3734">tsv_simple : tsvector</text><text fill="#000000" font-family="sans-serif" font-size="14" lengthAdjust="spacing" textLength="120" x="894.46" y="1343.4414">tsv_lang : tsvector</text><text fill="#000000" font-family="sans-serif" font-size="14" lengthAdjust="spacing" textLength="153" x="894.46" y="1362.5093">f_ticket_id : varchar(32)</text></g><!--link e_ticket to e_ticket_chunk--><g id="link_e_ticket_e_ticket_chunk"><path codeLine="61" d="M734.3659,249.5074 C541.3059,267.8674 216.39,331.15 62.96,553 C6,635.35 31.1345,731.9546 72.1545,816.5246 " fill="none" id="e_ticket-e_ticket_chunk" style="stroke:#181818;stroke-width:1.0;"/><line style="stroke:#181818;stroke-width:1.0;" x1="737.9693" x2="738.7267" y1="245.1467" y2="253.1107"/><line style="stroke:#181818;stroke-width:1.0;" x1="734.9827" x2="735.7401" y1="245.4307" y2="253.3947"/><line style="stroke:#181818;stroke-width:1.0;" x1="734.3659" x2="742.33" y1="249.5074" y2="248.75"/><line style="stroke:#181818;stroke-width:1.0;" x1="76.5187" x2="85.4085" y1="825.522" y2="830.1015"/><line style="stroke:#181818;stroke-width:1.0;" x1="76.5187" x2="74.6115" y1="825.522" y2="835.3385"/><line style="stroke:#181818;stroke-width:1.0;" x1="76.5187" x2="80.01" y1="825.522" y2="832.72"/><ellipse cx="73.9002" cy="820.1236" fill="none" rx="4" ry="4" style="stroke:#181818;stroke-width:1.0;"/><text fill="#000000" font-family="sans-serif" font-size="13" lengthAdjust="spacing" textLength="21" x="63.96" y="658.897">f_id</text></g><!--link e_ticket_field to e_ticket_chunk--><g id="link_e_ticket_field_e_ticket_chunk"><path codeLine="62" d="M170.2745,704.0941 C161.1545,729.0541 153.58,754.05 148.96,784 C146.54,799.67 145.7953,798.2574 145.3253,814.6674 " fill="none" id="e_ticket_field-e_ticket_chunk" style="stroke:#181818;stroke-width:1.0;"/><line style="stroke:#181818;stroke-width:1.0;" x1="167.8902" x2="175.4043" y1="698.9643" y2="701.7098"/><line style="stroke:#181818;stroke-width:1.0;" x1="166.8606" x2="174.3747" y1="701.7821" y2="704.5276"/><line style="stroke:#181818;stroke-width:1.0;" x1="170.2745" x2="173.02" y1="704.0941" y2="696.58"/><line style="stroke:#181818;stroke-width:1.0;" x1="145.039" x2="150.8075" y1="824.6633" y2="832.8318"/><line style="stroke:#181818;stroke-width:1.0;" x1="145.039" x2="138.8125" y1="824.6633" y2="832.4882"/><line style="stroke:#181818;stroke-width:1.0;" x1="145.039" x2="144.81" y1="824.6633" y2="832.66"/><ellipse cx="145.2108" cy="818.6657" fill="none" rx="4" ry="4" style="stroke:#181818;stroke-width:1.0;"/><text fill="#000000" font-family="sans-serif" font-size="13" lengthAdjust="spacing" textLength="65" x="149.96" y="798.897">field_name</text></g><!--link language to e_ticket_chunk--><g id="link_language_e_ticket_chunk"><path codeLine="63" d="M362.9429,701.6135 C314.6329,738.3635 258.38,781.32 255.96,784 C242.51,798.84 239.9087,800.7602 228.2687,817.8602 " fill="none" id="language-e_ticket_chunk" style="stroke:#181818;stroke-width:1.0;"/><line style="stroke:#181818;stroke-width:1.0;" x1="363.7047" x2="368.5482" y1="696.0082" y2="702.3753"/><line style="stroke:#181818;stroke-width:1.0;" x1="361.317" x2="366.1605" y1="697.8245" y2="704.1917"/><line style="stroke:#181818;stroke-width:1.0;" x1="362.9429" x2="369.31" y1="701.6135" y2="696.77"/><line style="stroke:#181818;stroke-width:1.0;" x1="222.6417" x2="223.0999" y1="826.1267" y2="836.1162"/><line style="stroke:#181818;stroke-width:1.0;" x1="222.6417" x2="213.1801" y1="826.1267" y2="829.3638"/><line style="stroke:#181818;stroke-width:1.0;" x1="222.6417" x2="218.14" y1="826.1267" y2="832.74"/><ellipse cx="226.0179" cy="821.1668" fill="none" rx="4" ry="4" style="stroke:#181818;stroke-width:1.0;"/><text fill="#000000" font-family="sans-serif" font-size="13" lengthAdjust="spacing" textLength="141" x="256.96" y="798.897">code = chunk_language</text></g><!--link e_conversation_item to e_conversation_item_chunk--><g id="link_e_conversation_item_e_conversation_item_chunk"><path codeLine="101" d="M825.0769,761.0817 C808.1069,789.3917 802.9138,798.0709 785.6338,826.9009 " fill="none" id="e_conversation_item-e_conversation_item_chunk" style="stroke:#181818;stroke-width:1.0;"/><line style="stroke:#181818;stroke-width:1.0;" x1="823.7026" x2="830.5643" y1="755.5943" y2="759.7074"/><line style="stroke:#181818;stroke-width:1.0;" x1="822.1602" x2="829.0219" y1="758.1674" y2="762.2805"/><line style="stroke:#181818;stroke-width:1.0;" x1="825.0769" x2="829.19" y1="761.0817" y2="754.22"/><line style="stroke:#181818;stroke-width:1.0;" x1="780.4928" x2="781.5264" y1="835.4782" y2="845.4246"/><line style="stroke:#181818;stroke-width:1.0;" x1="780.4928" x2="771.2336" y1="835.4782" y2="839.2554"/><line style="stroke:#181818;stroke-width:1.0;" x1="780.4928" x2="776.38" y1="835.4782" y2="842.34"/><ellipse cx="783.5774" cy="830.3318" fill="none" rx="4" ry="4" style="stroke:#181818;stroke-width:1.0;"/><text fill="#000000" font-family="sans-serif" font-size="13" lengthAdjust="spacing" textLength="21" x="810.96" y="798.897">f_id</text></g><!--link e_conversation_item_field to e_conversation_item_chunk--><g id="link_e_conversation_item_field_e_conversation_item_chunk"><path codeLine="102" d="M661.9082,704.5868 C669.4282,742.4568 675.732,774.2051 685.792,824.8351 " fill="none" id="e_conversation_item_field-e_conversation_item_chunk" style="stroke:#181818;stroke-width:1.0;"/><line style="stroke:#181818;stroke-width:1.0;" x1="657.2057" x2="665.0525" y1="701.4425" y2="699.8843"/><line style="stroke:#181818;stroke-width:1.0;" x1="657.79" x2="665.6368" y1="704.385" y2="702.8269"/><line style="stroke:#181818;stroke-width:1.0;" x1="661.9082" x2="660.35" y1="704.5868" y2="696.74"/><line style="stroke:#181818;stroke-width:1.0;" x1="687.7409" x2="695.185" y1="834.6434" y2="841.3207"/><line style="stroke:#181818;stroke-width:1.0;" x1="687.7409" x2="683.415" y1="834.6434" y2="843.6593"/><line style="stroke:#181818;stroke-width:1.0;" x1="687.7409" x2="689.3" y1="834.6434" y2="842.49"/><ellipse cx="686.5716" cy="828.7584" fill="none" rx="4" ry="4" style="stroke:#181818;stroke-width:1.0;"/><text fill="#000000" font-family="sans-serif" font-size="13" lengthAdjust="spacing" textLength="65" x="681.96" y="798.897">field_name</text></g><!--link language to e_conversation_item_chunk--><g id="link_language_e_conversation_item_chunk"><path codeLine="103" d="M450.8736,703.4848 C469.0136,735.3948 493.09,771.95 525.96,803 C544.8,820.8 555.02,817.72 575.96,833 C585.03,839.62 580.177,835.4473 589.277,842.7573 " fill="none" id="language-e_conversation_item_chunk" style="stroke:#181818;stroke-width:1.0;"/><line style="stroke:#181818;stroke-width:1.0;" x1="445.4194" x2="452.3742" y1="701.9842" y2="698.0306"/><line style="stroke:#181818;stroke-width:1.0;" x1="446.902" x2="453.8568" y1="704.5922" y2="700.6386"/><line style="stroke:#181818;stroke-width:1.0;" x1="450.8736" x2="446.92" y1="703.4848" y2="696.53"/><line style="stroke:#181818;stroke-width:1.0;" x1="597.0731" x2="607.0676" y1="849.0199" y2="849.3523"/><line style="stroke:#181818;stroke-width:1.0;" x1="597.0731" x2="599.5524" y1="849.0199" y2="858.7077"/><line style="stroke:#181818;stroke-width:1.0;" x1="597.0731" x2="603.31" y1="849.0199" y2="854.03"/><ellipse cx="592.3954" cy="845.2623" fill="none" rx="4" ry="4" style="stroke:#181818;stroke-width:1.0;"/><text fill="#000000" font-family="sans-serif" font-size="13" lengthAdjust="spacing" textLength="141" x="526.96" y="798.897">code = chunk_language</text></g><!--link e_ticket to e_conversation_item--><g id="link_e_ticket_e_conversation_item"><path codeLine="104" d="M888.96,482.02 C888.96,509.63 888.96,510.58 888.96,534.82 " fill="none" id="e_ticket-e_conversation_item" style="stroke:#181818;stroke-width:1.0;"/><line style="stroke:#181818;stroke-width:1.0;" x1="884.96" x2="892.96" y1="478.02" y2="478.02"/><line style="stroke:#181818;stroke-width:1.0;" x1="884.96" x2="892.96" y1="481.02" y2="481.02"/><line style="stroke:#181818;stroke-width:1.0;" x1="888.96" x2="888.96" y1="482.02" y2="474.02"/><line style="stroke:#181818;stroke-width:1.0;" x1="888.96" x2="894.96" y1="544.82" y2="552.82"/><line style="stroke:#181818;stroke-width:1.0;" x1="888.96" x2="882.96" y1="544.82" y2="552.82"/><line style="stroke:#181818;stroke-width:1.0;" x1="888.96" x2="888.96" y1="544.82" y2="552.82"/><ellipse cx="888.96" cy="538.82" fill="none" rx="4" ry="4" style="stroke:#181818;stroke-width:1.0;"/><text fill="#000000" font-family="sans-serif" font-size="13" lengthAdjust="spacing" textLength="94" x="889.96" y="518.897">f_id = f_ticket_id</text></g><!--link e_attachments to e_attachments_chunk--><g id="link_e_attachments_e_attachments_chunk"><path codeLine="137" d="M995.96,1013.15 C995.96,1052.9 995.96,1083.25 995.96,1132.86 " fill="none" id="e_attachments-e_attachments_chunk" style="stroke:#181818;stroke-width:1.0;"/><line style="stroke:#181818;stroke-width:1.0;" x1="991.96" x2="999.96" y1="1009.15" y2="1009.15"/><line style="stroke:#181818;stroke-width:1.0;" x1="991.96" x2="999.96" y1="1012.15" y2="1012.15"/><line style="stroke:#181818;stroke-width:1.0;" x1="995.96" x2="995.96" y1="1013.15" y2="1005.15"/><line style="stroke:#181818;stroke-width:1.0;" x1="995.96" x2="1001.96" y1="1142.86" y2="1150.86"/><line style="stroke:#181818;stroke-width:1.0;" x1="995.96" x2="989.96" y1="1142.86" y2="1150.86"/><line style="stroke:#181818;stroke-width:1.0;" x1="995.96" x2="995.96" y1="1142.86" y2="1150.86"/><ellipse cx="995.96" cy="1136.86" fill="none" rx="4" ry="4" style="stroke:#181818;stroke-width:1.0;"/><text fill="#000000" font-family="sans-serif" font-size="13" lengthAdjust="spacing" textLength="21" x="996.96" y="1116.897">f_id</text></g><!--link e_attachments_field to e_attachments_chunk--><g id="link_e_attachments_field_e_attachments_chunk"><path codeLine="138" d="M1218.3079,1001.8605 C1183.9279,1041.7605 1147.8971,1083.6016 1101.6871,1137.2516 " fill="none" id="e_attachments_field-e_attachments_chunk" style="stroke:#181818;stroke-width:1.0;"/><line style="stroke:#181818;stroke-width:1.0;" x1="1217.8887" x2="1223.9492" y1="996.2192" y2="1001.4413"/><line style="stroke:#181818;stroke-width:1.0;" x1="1215.9304" x2="1221.9909" y1="998.4919" y2="1003.714"/><line style="stroke:#181818;stroke-width:1.0;" x1="1218.3079" x2="1223.53" y1="1001.8605" y2="995.8"/><line style="stroke:#181818;stroke-width:1.0;" x1="1095.1609" x2="1094.4861" y1="1144.8285" y2="1154.8057"/><line style="stroke:#181818;stroke-width:1.0;" x1="1095.1609" x2="1085.3939" y1="1144.8285" y2="1146.9743"/><line style="stroke:#181818;stroke-width:1.0;" x1="1095.1609" x2="1089.94" y1="1144.8285" y2="1150.89"/><ellipse cx="1099.0766" cy="1140.2824" fill="none" rx="4" ry="4" style="stroke:#181818;stroke-width:1.0;"/><text fill="#000000" font-family="sans-serif" font-size="13" lengthAdjust="spacing" textLength="65" x="1128.96" y="1116.897">field_name</text></g><!--link language to e_attachments_chunk--><g id="link_language_e_attachments_chunk"><path codeLine="139" d="M420.3034,704.6213 C412.3234,798.6413 399.34,1013.8 442.96,1072 C547.02,1210.86 741.1077,1246.7707 870.2677,1256.1907 " fill="none" id="language-e_attachments_chunk" style="stroke:#181818;stroke-width:1.0;"/><line style="stroke:#181818;stroke-width:1.0;" x1="416.656" x2="424.6274" y1="700.2974" y2="700.974"/><line style="stroke:#181818;stroke-width:1.0;" x1="416.4023" x2="424.3737" y1="703.2866" y2="703.9632"/><line style="stroke:#181818;stroke-width:1.0;" x1="420.3034" x2="420.98" y1="704.6213" y2="696.65"/><line style="stroke:#181818;stroke-width:1.0;" x1="880.2412" x2="888.6564" y1="1256.9181" y2="1251.5159"/><line style="stroke:#181818;stroke-width:1.0;" x1="880.2412" x2="887.7836" y1="1256.9181" y2="1263.4841"/><line style="stroke:#181818;stroke-width:1.0;" x1="880.2412" x2="888.22" y1="1256.9181" y2="1257.5"/><ellipse cx="874.2571" cy="1256.4816" fill="none" rx="4" ry="4" style="stroke:#181818;stroke-width:1.0;"/><text fill="#000000" font-family="sans-serif" font-size="13" lengthAdjust="spacing" textLength="141" x="443.96" y="957.897">code = chunk_language</text></g><!--link e_ticket to e_attachments--><g id="link_e_ticket_e_attachments"><path codeLine="140" d="M985.4772,481.8193 C988.9872,491.8293 989.74,494.22 992.96,504 C1023.22,595.85 1048.5,768.57 1049.96,784 C1053.75,824.15 1046.7738,851.0687 1031.8638,883.5787 " fill="none" id="e_ticket-e_attachments" style="stroke:#181818;stroke-width:1.0;"/><line style="stroke:#181818;stroke-width:1.0;" x1="980.3789" x2="987.9283" y1="479.3683" y2="476.7211"/><line style="stroke:#181818;stroke-width:1.0;" x1="981.3716" x2="988.9209" y1="482.1993" y2="479.5521"/><line style="stroke:#181818;stroke-width:1.0;" x1="985.4772" x2="982.83" y1="481.8193" y2="474.27"/><line style="stroke:#181818;stroke-width:1.0;" x1="1027.695" x2="1029.8138" y1="892.6683" y2="902.4413"/><line style="stroke:#181818;stroke-width:1.0;" x1="1027.695" x2="1018.9062" y1="892.6683" y2="897.4387"/><line style="stroke:#181818;stroke-width:1.0;" x1="1027.695" x2="1024.36" y1="892.6683" y2="899.94"/><ellipse cx="1030.1963" cy="887.2145" fill="none" rx="4" ry="4" style="stroke:#181818;stroke-width:1.0;"/><text fill="#000000" font-family="sans-serif" font-size="13" lengthAdjust="spacing" textLength="94" x="1045.96" y="658.897">f_id = f_ticket_id</text></g><!--link e_conversation_item to e_attachments--><g id="link_e_conversation_item_e_attachments"><path codeLine="141" d="M864.8183,762.2369 C864.3583,778.8269 866.38,787.63 871.96,803 C885.24,839.63 899.4394,860.5987 924.6794,886.7487 " fill="none" id="e_conversation_item-e_attachments" style="stroke:#181818;stroke-width:1.0;"/><line style="stroke:#181818;stroke-width:1.0;" x1="860.9307" x2="868.9276" y1="758.1276" y2="758.3493"/><line style="stroke:#181818;stroke-width:1.0;" x1="860.8475" x2="868.8444" y1="761.1264" y2="761.3482"/><line style="stroke:#181818;stroke-width:1.0;" x1="864.8183" x2="865.04" y1="762.2369" y2="754.24"/><line style="stroke:#181818;stroke-width:1.0;" x1="931.6242" x2="941.4971" y1="893.9439" y2="895.5331"/><line style="stroke:#181818;stroke-width:1.0;" x1="931.6242" x2="932.8629" y1="893.9439" y2="903.8669"/><line style="stroke:#181818;stroke-width:1.0;" x1="931.6242" x2="937.18" y1="893.9439" y2="899.7"/><ellipse cx="927.4573" cy="889.6268" fill="none" rx="4" ry="4" style="stroke:#181818;stroke-width:1.0;"/><text fill="#000000" font-family="sans-serif" font-size="13" lengthAdjust="spacing" textLength="172" x="872.96" y="798.897">f_id = f_conversation_item_id</text></g><!--SRC=[xLRTJjim5BxFKrYzAKpqOkncGe1KTTse46LQezrQhcDI3yUkRASR1Tvbxx8NsucJLaaTXp3jRkj5LPy_7v_pVHyCaULMCBIWAvOHn2GSV_qSQIR8bYl945MIQcOLIfX0QwrIPk5mbAYCIwwGONh3AGElkKTN7yR7KUHgFA2183BDISe6Y1YqEw372A4tK3LXw0pH5T57fyVe_FppzUKbU4OZ-98aAvoM_R3HSnGDqKN71zpnR78zZL-AsxN5iENqdbdNrkvGjNM7UG8tRuXsdRtpMhl3PHalplcgLnsQgncrvwZbDqOjjW_hG02XLENIXcwKbj20anZ3KyaId4C7WTk_It25_LGeask64sBTIdZ6Z2NPscwTMn1ZCIJ8jCrRJRobgcR40hf2PSkTO33PtBGtrWmffWT1IvvoQPq_rocJDB0ddgs3GwiAhpLNEhZetUqgrw6zDeUVQfMl-mIgpjZQkW9Hpv47T7p7cKWQS2zDEz0Nlt6DT0UO7yB5GFobODb9WMObyc9vxdVkq0j1GgMS4e4FkElrGbUvl6_suapT13n17yk6GjtM0bmvx3Z3DCG08WuUL4QutAhJdMslKdLfgYgpRCcIXCkqw0yUhVJHszFtnLwisM03c1Ak9LCwAtjHiMaT8Wf8v_0G0GqI62k8frGw8u9ljy2B7ipge6Knz9seFJsDHkhnSD9dQ52CUH0Te24SlH_v8DfFA1ZjHF3YOA237Z8-kPr_dNvPZEFPxHpFukbDVqK76TmmRKfHuPPb5S8y-z_H-J-Nv6fOBRTNA0DEGPzummrVEZmjbHACo6v1RHVm1l-yKJHa8U1zXK800WqikeyK-9VLLI7W_TS4GWK5GdLZq0c03_mzNqFphSb220szQdIAHKTYG3TyCVFVLhKEsJM6zP6SSHoF9rStqtcyw2ysn0A_LnaOJ0NPcgM_mFIG0dzQeUW6lshjD4ZksLz1xqBLcEprbxv-JPtOdlq_fPkK3Y2YP7GTOtig-2EjiTXVzmjvdSnjJUdDsNht0RPsYbOeluqXVOW_ct-QBef_D53yPJovXkDBEL7q6m00]--></g></svg>